<?xml version="1.0" encoding="utf-8"?>
<svg viewBox="0 0 500 500" width="500" height="500" xmlns="http://www.w3.org/2000/svg">
  <path d="M 286.844 428.442 L 285.141 428.347 L 280.754 427.96 L 275.152 427.25 L 269.42 426.279 L 263.523 425.031 L 256.28 423.238 L 249.056 421.163 L 241.905 418.805 L 236.061 416.731 L 229.849 414.235 L 225.587 412.357 L 219.401 409.33 L 215.113 406.972 L 210.851 404.431 L 206.707 401.706 L 203.543 399.434 L 200.134 396.741 L 197.698 394.686 L 193.725 391.16 L 188.778 388.765 L 181.649 387.793 C 178.576 387.768 175.629 383.166 175.644 381.874 L 173.596 378.732 L 172.269 374.355 L 167.866 371.618 L 164.95 369.838 L 160.793 367.093 L 157.523 364.709 L 154.233 362.161 L 150.752 359.259 L 146.924 355.818 L 141.448 350.322 L 137.6 346.033 L 134.178 341.923 L 131.217 338.068 L 128.879 334.863 L 126.449 331.33 L 124 327.555 L 121.065 322.669 L 118.228 317.573 L 113.992 309.049 L 111.562 303.546 L 109.126 297.485 L 107.051 291.76 L 105.213 286.158 L 103.991 282.093 L 102.5 276.656 L 101.2 271.297 L 99.972 265.558 L 98.863 259.484 L 97.91 253.272 L 97.168 247.303 L 96.565 240.847 L 96.19 235.246 L 95.947 229.402 L 95.964 223.872 L 95.964 218.33 L 96.206 212.486 L 96.581 206.76 L 97.066 201.526 L 97.671 196.292 L 98.525 190.323 L 99.385 185.332 L 100.363 180.342 L 101.46 175.351 L 102.891 169.625 L 104.25 164.752 L 105.938 159.263 L 107.554 154.521 L 109.826 148.434 L 111.881 143.437 L 113.765 139.175 L 116.195 134.059 L 119.006 128.701 L 120.169 126.632 L 121.33 124.561 L 124.122 119.931 L 128.061 113.962 L 130.944 109.943 L 134.017 105.951 L 137.268 102.024 L 140.821 98.005 L 147.657 91.169 L 150.821 88.358 L 154.84 85.009 L 159.956 81.168 L 164.099 78.377 L 167.994 75.98 L 169.94 74.89 L 171.888 73.803 L 176.235 71.623 L 179.735 70.054 L 183.99 68.352 L 189.059 66.633 L 192.349 65.68 L 196.854 64.564 L 201.261 63.73 L 205.496 63.126 L 209.147 62.758 L 214.506 62.475 L 221.571 62.62 L 225.833 63.007 L 229.609 63.486 L 233.871 64.229 L 238.251 65.22 L 242.998 66.521 L 245.701 67.437 L 248.403 68.356 L 249.962 68.977 L 251.522 69.601 L 254.687 70.947 L 259.376 73.219 L 263.086 75.221 L 267.591 77.914 L 272.464 81.177 L 277.579 85.019 L 281.598 88.368 L 284.75 91.192 L 289.727 96.064 L 293.661 100.327 L 296.583 103.734 L 299.512 107.385 L 301.476 109.946 L 304.516 114.208 L 307.432 118.595 L 309.999 122.739 L 312.251 126.633 L 314.458 130.652 L 317.918 137.593 L 320.118 142.465 L 322.298 147.699 L 323.914 151.908 L 325.864 157.397 L 327.584 162.802 L 329.371 169.014 L 330.724 174.372 L 331.289 176.868 L 331.85 179.363 L 332.664 183.382 L 333.656 188.859 L 334.49 194.46 L 334.648 195.616 L 335.061 195.616 L 339.691 195.137 L 343.834 195.137 L 346.513 195.38 L 350.289 196.004 L 353.455 196.818 L 356.712 197.954 L 359.542 199.162 L 363.193 201.06 L 367.212 203.489 L 371.473 206.247 L 376.832 209.912 L 379.879 212.098 L 383.287 214.659 L 386.695 217.346 L 389.86 219.992 L 393.189 223.137 L 395.389 225.633 L 396.657 226.086 L 397.904 227.34 L 399.165 230.419 L 400.643 234.767 L 401.95 239.153 L 403.066 243.232 L 404.143 247.795 L 405.003 251.814 L 405.739 255.59 L 406.349 258.998 L 406.953 262.892 L 407.57 267.64 L 407.932 271.048 L 408.306 275.31 L 408.66 280.912 L 408.943 289.192 L 408.792 299.423 L 408.543 304.171 L 408.05 310.501 L 407.564 315.248 L 406.724 322.098 L 405.863 327.791 L 404.997 332.664 L 404.454 335.31 L 403.913 337.953 L 402.692 342.891 L 401.47 347.153 L 399.874 351.901 L 398.081 356.616 L 396.355 360.667 L 394.333 364.929 L 392.467 368.462 L 389.913 372.724 L 387.7 375.889 L 384.942 379.422 L 382.23 382.587 L 378.414 386.698 L 373.91 391.084 L 370.016 394.558 L 366.712 397.329 L 362.346 400.757 L 358.083 403.915 L 354.19 406.614 L 348.346 410.377 L 342.869 413.661 L 338.594 416.005 L 331.909 419.288 L 326.794 421.462 L 322.407 423.103 L 318.02 424.562 L 313.286 425.881 L 308.4 426.971 L 303.41 427.819 L 299.023 428.311 L 294.833 428.56 L 288.556 428.527 L 286.851 428.432 L 286.844 428.442 Z M 298.96 420.967 L 300.848 420.779 L 304.256 420.28 L 307.546 419.683 L 311.44 418.809 L 316.07 417.515 L 319.846 416.249 L 323.74 414.797 L 327.884 413.07 L 333.176 410.581 L 337.747 408.145 L 341.036 406.26 L 346.395 402.971 L 351.386 399.687 L 354.676 397.362 L 359.062 394.079 L 363.166 390.795 L 365.879 388.465 L 369.169 385.536 L 375.144 379.567 L 378.749 375.443 L 381.074 372.54 L 383.576 369.04 L 384.903 366.9 L 386.314 364.463 L 388.58 360.077 L 390.438 355.933 L 391.784 352.663 L 393.315 348.506 L 394.792 344.002 L 395.678 340.836 L 396.979 335.478 L 397.983 330.487 L 398.929 324.885 L 399.657 319.77 L 400.275 314.779 L 400.88 308.567 L 401.247 303.577 L 401.536 298.461 L 401.536 284.822 L 401.233 279.345 L 400.866 274.229 L 400.367 268.996 L 400.196 268.293 L 399.619 270.946 L 398.331 275.576 L 397.32 278.497 L 395.974 281.906 L 394.293 285.544 L 392.067 289.694 L 389.4 294.166 L 386.196 298.947 L 383.649 302.44 L 380.017 307.109 L 376.596 311.252 L 372.353 316.211 L 368.361 320.683 L 368.361 321.254 L 365.262 324.156 L 356.121 333.173 L 352.246 336.659 L 348.083 340.12 L 344.793 342.695 L 341.522 345.085 L 337.491 347.797 L 333.597 350.128 L 330.917 351.593 L 326.53 353.786 L 322.144 355.789 L 316.175 358.356 L 311.545 360.182 L 306.128 361.987 L 300.954 363.288 L 297.421 363.925 L 293.644 364.397 L 289.626 364.686 L 283.538 364.542 L 274.404 363.688 L 269.499 363.426 L 265.454 363.682 L 262.63 364.049 L 260.029 364.542 L 256.74 365.402 L 246.634 368.771 L 243.344 369.631 L 239.693 370.36 L 236.646 370.727 L 233.724 370.991 L 221.792 371.194 L 219.238 371.581 L 215.219 372.422 L 209.617 373.637 L 205.356 374.254 L 204.123 374.262 L 196.616 383.863 L 187.363 374.129 L 187.291 374.201 L 190.732 377.971 L 196.838 384.058 L 201.101 387.939 L 204.265 390.652 L 207.312 393.094 L 210.596 395.491 L 215.108 398.453 L 219.126 400.843 L 222.902 402.885 L 228.017 405.406 L 233.297 407.738 L 239.102 410.036 L 244.579 411.98 L 250.915 414.055 L 256.878 415.808 L 264.915 417.837 L 270.234 418.953 L 274.91 419.781 L 280.138 420.517 L 283.913 420.891 L 287.565 421.141 L 289.029 421.232 L 297.066 421.141 L 298.954 420.953 L 298.96 420.967 Z M 285.807 412.37 L 283.555 412.275 L 280.147 412.006 L 275.642 411.513 L 271.499 410.896 L 268.209 410.298 L 262.194 408.959 L 254.083 406.917 L 247.385 405.085 L 241.298 403.259 L 235.94 401.512 L 230.095 399.371 L 227.416 398.334 L 226.641 397.565 L 226.471 396.659 L 226.884 395.575 L 227.606 395.064 L 228.506 394.945 L 233.366 396.81 L 238.737 398.715 L 244.214 400.435 L 248.718 401.774 L 255.417 403.607 L 263.698 405.669 L 268.688 406.778 L 272.706 407.508 L 276.969 408.111 L 281.841 408.598 L 286.701 408.886 L 294.023 408.748 L 297.555 408.374 L 300.195 407.987 L 303.885 407.277 L 304.568 407.277 L 305.258 407.632 L 305.895 408.388 L 305.895 409.649 L 305.441 410.331 L 304.916 410.699 L 301.81 411.303 L 298.159 411.894 L 294.383 412.275 L 289.268 412.512 L 288.053 412.479 L 285.8 412.383 L 285.807 412.37 Z M 351.474 385.144 L 351.081 384.95 L 350.549 384.097 L 350.549 383.059 L 351.015 382.337 L 352.558 381.063 L 356.223 377.576 L 360.517 373.111 L 364.056 369.217 L 366.611 366.294 L 369.907 362.4 L 372.718 358.867 L 374.661 356.189 L 376.849 352.899 L 378.451 350.219 L 380.322 346.686 L 381.734 343.639 L 382.469 341.932 L 383.73 338.767 L 385.057 334.873 L 385.648 332.801 L 386.236 330.729 L 386.997 327.249 L 388.212 318.673 L 388.475 317.55 L 389.302 316.749 L 390.59 316.644 L 391.443 317.222 L 391.883 318.068 L 391.765 319.041 L 390.773 326.139 L 390.274 329.022 L 389.21 333.408 L 387.996 337.428 L 386.38 341.808 L 384.771 345.59 L 383.123 349.057 L 381.487 352.045 L 379.537 355.302 L 377.265 358.671 L 375.23 361.422 L 371.809 365.677 L 367.31 370.912 L 363.679 374.923 L 358.892 379.941 L 355.031 383.618 L 353.231 385.115 L 352.64 385.339 L 351.865 385.332 L 351.471 385.138 L 351.474 385.144 Z M 206.826 377.543 L 206.612 377.307 L 207.197 377.327 L 207.644 377.504 L 207.033 377.78 L 206.82 377.543 L 206.826 377.543 Z M 175.785 368.066 L 174.86 367.531 L 171.817 366.895 L 172.01 360.642 L 172.222 356.635 L 171.664 353.936 L 171.52 353.936 L 172.5 356.37 L 173.931 360.345 L 173.047 366.591 L 173.315 366.759 L 171.69 365.356 L 173.713 366.525 L 176.149 367.812 L 176.208 367.818 L 175.791 367.057 L 175.785 368.066 Z M 162.391 359.397 L 165.508 361.994 L 171.645 365.58 L 169.192 364.797 L 173.099 365.868 L 172.895 358.423 L 173.112 357.96 L 171.687 354.025 L 167.362 334.349 L 167.537 327.962 L 168.398 318.433 L 160.737 309.02 L 160.028 306.124 L 158.767 302.23 L 156.095 294.803 L 154.769 290.784 L 154.066 288.348 L 153.212 284.939 L 152.581 281.775 L 151.984 277.631 L 151.603 273.612 L 151.452 268.011 L 151.741 263.867 L 152.201 260.577 L 152.726 258.042 L 153.442 255.488 L 154.309 253.15 L 155.871 250.091 L 157.684 247.667 L 160.061 245.257 L 162.418 243.491 L 165.052 241.901 L 174.304 237.266 L 176.74 235.729 L 178.277 234.678 L 180.392 232.898 L 184.043 229.155 L 187.09 225.505 L 193.899 216.738 L 196.343 213.815 L 198.897 211.169 L 200.728 209.692 L 203.047 208.168 L 205.844 206.704 L 209.463 205.2 L 216.318 202.809 L 220.337 201.352 L 223.535 200.117 L 226.425 198.863 L 230.568 196.794 L 234.77 194.502 L 237.627 193.202 L 239.998 192.316 L 242.9 191.607 L 245.297 191.291 L 250.17 191.311 L 253.577 191.593 L 258.083 191.981 L 263.808 192.001 L 265.211 191.794 L 266.613 191.584 L 271.485 190.474 L 276.115 189.535 L 278.794 189.161 L 281.23 188.858 L 287.686 188.852 L 291.219 189.167 L 295.604 189.778 L 299.748 190.625 L 303.643 191.564 L 306.388 192.451 L 308.732 193.429 L 310.701 194.421 L 314.478 196.555 L 316.789 197.415 L 318.982 197.828 L 323.855 197.855 L 326.166 197.428 L 327.447 197.153 L 327.447 196.988 L 327.073 194.328 L 326.468 190.31 L 325.602 185.437 L 324.544 180.204 L 323.658 176.31 L 322.305 170.951 L 320.519 164.739 L 319.318 160.963 L 317.735 156.333 L 316.099 151.947 L 314.688 148.421 L 312.809 144.034 L 310.387 138.801 L 307.491 133.146 L 305.015 128.694 L 301.955 123.578 L 297.555 117.005 L 295.296 113.905 L 292.223 109.946 L 289.281 106.426 L 286.254 103.005 L 279.543 96.3 L 275.767 93.01 L 273.574 91.192 L 270.408 88.749 L 267.361 86.555 L 264.046 84.336 L 259.817 81.794 L 256.408 79.93 L 252.428 77.979 L 248.613 76.324 L 244.47 74.735 L 240.3 73.382 L 236.8 72.424 L 233.024 71.551 L 229.734 70.946 L 226.326 70.454 L 224.501 70.27 L 222.675 70.083 L 218.413 69.833 L 214.151 69.833 L 209.764 70.083 L 206.114 70.457 L 202.705 70.95 L 199.416 71.554 L 195.64 72.427 L 192.173 73.38 L 188.331 74.62 L 185.094 75.822 L 181.351 77.378 L 177.174 79.336 L 172.498 81.863 L 169.333 83.754 L 164.461 86.979 L 161.052 89.481 L 157.034 92.699 L 152.897 96.33 L 148.169 100.959 L 144.754 104.611 L 141.155 108.793 L 138.391 112.287 L 136.493 114.802 L 133.695 118.736 L 130.958 122.886 L 128.265 127.273 L 125.96 131.291 L 123.583 135.737 L 120.707 141.641 L 118.382 146.894 L 116.314 151.996 L 115.171 155.043 L 113.286 160.402 L 111.671 165.517 L 110.108 170.993 L 108.637 176.838 L 107.297 182.926 L 106.312 188.159 L 105.465 193.393 L 104.848 197.897 L 104.244 203.256 L 103.751 208.982 L 103.37 215.194 L 103.233 227.736 L 103.515 234.921 L 103.876 240.397 L 104.362 245.631 L 104.979 250.865 L 105.584 255.126 L 106.555 260.971 L 107.665 266.573 L 108.873 271.931 L 110.226 277.164 L 112.012 283.377 L 113.891 289.103 L 115.913 294.704 L 118.106 300.181 L 120.405 305.415 L 122.782 310.405 L 124.055 312.841 L 125.717 316.007 L 128.502 320.872 L 130.826 324.655 L 134.148 329.652 L 136.67 333.179 L 139.474 336.83 L 142.049 339.995 L 145.391 343.817 L 149.988 348.643 L 154.223 352.577 L 156.555 354.613 L 159.7 357.2 L 164.087 360.509 L 164.251 360.522 L 163.667 360.271 L 162.391 359.397 Z M 151.035 337.628 L 150.329 337.037 L 148.254 334.87 L 145.719 331.823 L 142.81 327.929 L 138.857 321.96 L 135.581 316.483 L 132.048 310.153 L 129.835 306.009 L 126.518 299.555 L 123.826 294.078 L 121.692 289.448 L 119.991 285.187 L 118.619 280.997 L 117.765 277.878 L 117.063 274.831 L 116.564 272.151 L 116.071 268.376 L 115.821 265.237 L 115.821 262.091 L 116.176 261.402 L 116.931 260.765 L 118.152 260.765 L 118.796 261.152 L 119.282 261.803 L 119.44 266.314 L 119.716 269.111 L 120.208 272.52 L 120.93 275.927 L 121.915 279.704 L 123.458 284.333 L 124.785 287.622 L 126.452 291.399 L 132.231 302.97 L 136.251 310.462 L 138.844 315.026 L 141.537 319.531 L 143.959 323.307 L 146.035 326.328 L 148.51 329.644 L 151.032 332.69 L 153.921 335.541 L 154.164 336.178 L 154.164 336.907 L 153.81 337.596 L 153.055 338.233 L 151.748 338.233 L 151.035 337.628 Z M 191.269 354.419 L 191.657 354.183 L 192.037 353.599 L 192.392 351.577 L 193.37 348.319 L 194.927 344.353 L 196.687 340.472 L 198.598 336.696 L 201.067 332.322 L 203.385 328.784 L 206.137 325.132 L 209.02 321.862 L 212.677 318.224 L 215.677 315.637 L 219.408 312.833 L 222.245 311.132 L 222.717 310.364 L 222.717 309.293 L 222.271 308.446 L 221.201 307.901 L 220.583 307.901 L 219.119 308.597 L 215.467 311.047 L 212.014 313.818 L 209.131 316.412 L 205.966 319.655 L 203.286 322.729 L 201.028 325.625 L 198.02 330.129 L 195.728 334.148 L 193.751 337.925 L 192.011 341.7 L 190.593 345.109 L 189.45 348.273 L 188.649 351.203 L 188.347 353.067 L 188.879 354.164 L 189.654 354.663 L 190.869 354.663 L 191.26 354.427 L 191.269 354.419 Z M 173.818 347.713 L 174.909 344.813 L 175.73 342.619 L 176.598 341.525 L 177.173 339.338 L 177.145 340.222 L 176.225 337.543 L 173.5 331.088 L 172.219 327.798 L 170.446 322.682 L 169.428 320.371 L 168.352 318.545 L 168.174 320.01 L 167.551 327.436 L 167.281 334.01 L 171.418 354.105 L 172.366 355.034 L 172.518 351.593 L 173.391 348.67 L 173.818 347.713 Z M 181.567 327.988 L 182.335 326.711 L 185.671 322.567 L 188.337 319.513 L 192.724 314.89 L 196.966 310.957 L 199.278 308.974 L 202.154 306.735 L 204.997 304.738 L 208.648 302.545 L 212.063 300.766 L 215.55 299.111 L 219.365 297.515 L 223.259 296.05 L 227.403 294.606 L 233.615 292.688 L 238.12 291.454 L 242.257 290.456 L 245.671 289.727 L 251.273 288.775 L 255.778 288.164 L 259.186 287.79 L 263.448 287.435 L 268.806 287.126 L 280.863 287.133 L 285.979 287.435 L 290.969 287.796 L 296.938 288.413 L 302.297 289.129 L 306.315 289.746 L 311.306 290.607 L 316.907 291.71 L 321.655 292.793 L 326.883 294.147 L 332.031 295.702 L 336.759 297.39 L 339.806 298.612 L 342.728 299.879 L 347.476 302.27 L 350.883 304.266 L 354.66 306.761 L 357.582 308.934 L 360.53 311.39 L 363.958 314.582 L 366.848 311.351 L 369.77 307.943 L 372.942 304.168 L 375.87 300.516 L 378.91 296.498 L 380.999 293.575 L 383.554 289.681 L 385.51 286.391 L 386.902 283.837 L 388.577 280.488 L 390.008 277.138 L 391.229 273.73 L 392.34 269.837 L 393.186 266.06 L 393.685 263.381 L 394.165 260.091 L 394.657 255.343 L 394.934 249.617 L 394.769 245.966 L 394.421 242.433 L 393.909 239.386 L 393.068 236.096 L 391.893 233.384 L 390.488 231.224 L 389.496 230.009 L 387.191 227.488 L 384.131 224.723 L 380.966 222.136 L 376.461 218.675 L 373.414 216.462 L 369.027 213.428 L 365.376 210.992 L 360.872 208.188 L 357.339 206.211 L 353.957 204.727 L 350.372 203.532 L 346.746 202.809 L 344.553 202.494 L 339.076 202.501 L 335.55 202.935 L 333.475 203.295 L 328.117 204.523 L 324.584 205.16 L 318.615 205.154 L 316.547 204.859 L 314.353 204.353 L 311.66 203.315 L 310.091 202.527 L 307.898 201.24 L 304.976 199.783 L 302.631 198.909 L 299.374 198.055 L 295.841 197.306 L 293.287 196.834 L 291.376 196.598 L 289.462 196.361 L 284.451 196.072 L 280.236 196.355 L 277.09 196.827 L 274.411 197.346 L 268.684 198.66 L 265.638 199.165 L 261.389 199.447 L 255.775 199.159 L 251.756 198.804 L 247.336 198.541 L 244.447 198.791 L 241.932 199.414 L 239.331 200.458 L 237.749 201.254 L 232.055 204.313 L 227.525 206.428 L 223.992 207.833 L 220.701 209.048 L 212.177 212.036 L 209.466 213.145 L 206.806 214.479 L 204.574 215.969 L 202.578 217.847 L 200.161 220.652 L 192.767 230.147 L 189.536 234.041 L 184.525 239.051 L 182.457 240.693 L 179.922 242.42 L 177.098 244.101 L 168.089 248.573 L 165.416 250.339 L 163.269 252.408 L 162.093 254.01 L 161.345 255.35 L 160.372 257.813 L 159.637 260.59 L 159.158 263.394 L 158.843 266.198 L 158.863 273.015 L 159.401 278.13 L 160.136 282.516 L 161.352 287.389 L 163.492 293.844 L 166.171 301.285 L 167.156 304.561 L 167.577 306.268 L 170.315 309.072 L 171.576 310.536 L 173.605 313.229 L 175.214 315.77 L 176.75 318.817 L 177.624 321.129 L 179.37 326.119 L 180.297 328.431 L 180.697 329.369 L 180.769 329.278 L 181.537 328.001 L 181.567 327.988 Z M 242.46 306.488 L 243.363 306.18 L 246.166 305.471 L 249.7 304.742 L 255.176 303.77 L 260.778 302.903 L 267.233 302.056 L 274.66 301.196 L 279.04 300.816 L 285.521 300.592 L 292.921 300.816 L 296.33 301.078 L 299.252 301.439 L 302.975 302.063 L 304.125 301.491 L 304.696 300.342 L 304.532 299.35 L 303.895 298.596 L 303.146 298.28 L 299.377 297.657 L 296.211 297.302 L 292.193 296.987 L 279.769 296.98 L 275.993 297.302 L 270.345 297.9 L 262.479 298.878 L 257.363 299.614 L 250.79 300.723 L 245.313 301.813 L 242.877 302.418 L 240.218 303.291 L 239.357 304.078 L 239.259 305.654 L 240.06 306.567 L 240.559 306.772 L 241.551 306.784 L 242.454 306.476 L 242.46 306.488 Z" style=""/>
  <path d="M 253.449 292.714 C 258.912 292.311 270.44 291.196 276.127 291.53 C 282.526 291.909 290.085 292.274 297.973 292.416 C 307.988 292.597 312.893 296.019 319.231 296.013 C 323.368 296.009 333.91 301.126 336.511 301.392 C 339.882 301.737 343.232 305.576 346.376 306.715 C 349.145 307.717 351.431 309.925 353.024 311.633 C 354.428 313.14 356.628 315.101 358.119 316.04 C 361.389 318.102 352.667 324.684 352.425 326.092 C 352.152 327.675 349.839 328.444 348.858 330.026 C 347.81 331.712 344.011 333.755 341.779 335.381 C 338.655 337.657 335.766 339.423 332.345 341.754 C 330.568 342.962 325.906 345.361 322.476 346.596 C 317.219 348.489 317.43 349.796 308.5 352.066 C 297.245 354.929 290.146 356.639 275.896 354.69 C 265.37 353.25 257.619 356.089 253.753 357.675 C 248.079 360.003 241.366 360.636 235.831 361.377 C 229.797 362.185 224.373 361.816 218.118 362.487 C 213.577 362.975 198.567 367.931 205.521 365.802 C 207.128 365.311 198.848 367.03 196.022 372.294 C 185.874 391.202 178.429 369.769 177.977 367.477 C 177.664 365.891 178.958 353.591 179.144 351.79 C 179.351 349.785 184.102 339.944 184.505 337.301 C 185.199 332.765 188.088 329.652 191.294 325.314 C 195.654 319.419 194.798 319.539 200.547 314.64 C 204.854 310.968 207.417 308.616 211.362 306.478 C 215.067 304.469 218.436 302.656 222.221 301.229 C 225.994 299.808 231.403 297.375 235.87 296.401 C 241.149 295.251 247.608 293.144 253.449 292.714 Z" style="fill-rule: nonzero; paint-order: markers stroke; fill: rgb(255, 136, 0); stroke-width: 5px; stroke: rgb(248, 183, 17);"/>
  <path style="stroke: rgb(0, 0, 0); fill: rgb(255, 255, 255);" d="M 188.721 352.702 C 188.721 352.702 195.42 320.239 220.411 307.872 C 220.411 307.872 224.276 306.842 222.215 311.222 C 222.215 311.222 203.665 318.693 191.556 354.505 C 191.556 354.505 187.949 357.339 188.721 352.702 Z"/>
  <path style="stroke: rgb(0, 0, 0); fill: rgb(255, 255, 255);" d="M 238.804 302.912 C 238.804 302.912 278.738 291.318 302.957 298.274 C 302.957 298.274 305.895 298.891 302.804 301.209 C 299.713 303.527 272.555 296.986 239.577 306.261 C 238.158 307.173 236.417 304.446 238.804 302.912 Z"/>
  <path style="stroke: rgb(0, 0, 0);" d="M 130.807 169.112 C 130.807 169.112 121.842 147.515 145.069 120.62 C 168.296 93.725 212.306 92.91 212.306 92.91 C 212.306 92.91 263.651 93.725 282.804 115.73 C 283.548 115.73 307.483 142.625 293.399 165.852 C 293.177 165.631 294.095 166.293 284.841 174.002 C 275.587 181.711 204.656 201.695 143.032 180.115 C 142.623 180.815 133.273 176.228 130.807 169.112 Z"/>
  <ellipse style="stroke: rgb(0, 0, 0); fill: rgb(239, 99, 6);" cx="172.984" cy="153.65" rx="24.246" ry="13.651"/>
  <ellipse style="stroke: rgb(0, 0, 0); fill: rgb(239, 99, 6);" cx="251.019" cy="151.816" rx="24.246" ry="13.651"/>
</svg>