<svg id="eEpv7AVBG9z1" xmlns="http://www.w3.org/2000/svg" xmlns:xlink="http://www.w3.org/1999/xlink" viewBox="0 0 500 500" shape-rendering="geometricPrecision" text-rendering="geometricPrecision"><ellipse id="eEpv7AVBG9z2" rx="87.907" ry="9.804" transform="translate(244.933 439.861)" opacity="0.45" fill="#a6a5a5" stroke="rgba(255,255,255,0)" stroke-width="0"/><g transform="matrix(3.41234 0 0 3.41234 74.3805 79.1939)"><g transform="translate(0 1.75832)"><path id="eEpv7AVBG9z5" d="M71.971,64.729L60.766,59.026L50.198,64.729L39.263,59.026l-10.84,5.703-9.316-9.885c-.191,2.219-.382,4.438-.382,6.556c0,23.705,14.072,37.927,31.473,37.927c17.4,0,31.471-14.222,31.471-37.927c0-2.118-.093-4.337-.38-6.556l-9.318,9.885Z" transform="translate(-.183434 0)" fill="#187cc9" stroke="#000"/></g></g><g id="eEpv7AVBG9z7" transform="translate(0 0.000001)"><g transform="matrix(3.444196 0 0 2.917887 72.402864 106.531314)"><path d="M28.734304,56.825L39.367,50.689l11.066002,7.414665L60.926,50.497l10.953521,6.328L81.4,46.893c-4.8-20.7-17.608-42.5-31.208-42.5s-26.026,21.226-30.726,41.926l9.268304,10.506Z" fill="#187cc9" stroke="#000"/><g id="eEpv7AVBG9z10" transform="translate(1.506368-.165381)"><ellipse rx="4.022" ry="4.022" transform="translate(50.461-10.737)" fill="#187cc9" stroke="#000"/><path d="M51.609,-6.906c-5.33,0-6.937,1.644-3.83,4.68.632.618,5.502.136,4.213-1.123-1.766-1.726-7.43,1.949-6.129,4.492.853,1.666,4.847,2.751,6.512,1.123.705-.688-4.819-.344-5.746.561-4.636,4.532,8.523,4.586,6.513,2.621-3.564-3.482-7.154,4.118-3.831,4.118" fill="#187cc9" fill-opacity="0" stroke="#000"/></g></g><path d="M174.731,209.338c0,0-12.684-16.7,8.356-38.53c21.039-21.827,60.908-22.489,60.908-22.489s46.511.662,63.862,18.522c.673,0,22.356,20.17,9.598,39.02-64.499,36.74-140.075,8.836-142.724,3.477Z" transform="translate(0 4)" stroke="#000"/><ellipse rx="19.268" ry="13.651" transform="translate(206.97 190.643)" fill="#fff" stroke="#000"/><ellipse rx="20.098" ry="13.651" transform="translate(282.806 190.116)" fill="#fff" stroke="#000"/></g>
</svg>
