<?xml version="1.0" encoding="utf-8"?>
<svg viewBox="-2.435 -6.088 500 500" width="500" height="500" xmlns="http://www.w3.org/2000/svg">
  <path d="M 284.348 408.656 L 282.645 408.561 L 278.258 408.174 L 272.656 407.464 L 266.924 406.493 L 261.027 405.245 L 253.784 403.452 L 246.56 401.377 L 239.409 399.019 L 233.565 396.945 L 227.353 394.449 L 223.091 392.571 L 216.905 389.544 L 212.617 387.186 L 208.355 384.645 L 204.211 381.92 L 201.047 379.648 L 197.638 376.955 L 195.202 374.9 L 191.229 371.374 L 186.282 368.979 L 179.153 368.007 C 176.08 367.982 173.133 363.38 173.148 362.088 L 171.1 358.946 L 169.773 354.569 L 165.37 351.832 L 162.454 350.052 L 158.297 347.307 L 155.027 344.923 L 151.737 342.375 L 148.256 339.473 L 144.428 336.032 L 138.952 330.536 L 135.104 326.247 L 131.682 322.137 L 128.721 318.282 L 126.383 315.077 L 123.953 311.544 L 121.504 307.769 L 118.569 302.883 L 115.732 297.787 L 111.496 289.263 L 109.066 283.76 L 106.63 277.699 L 104.555 271.974 L 102.717 266.372 L 101.495 262.307 L 100.004 256.87 L 98.704 251.511 L 97.476 245.772 L 96.367 239.698 L 95.414 233.486 L 94.672 227.517 L 94.069 221.061 L 93.694 215.46 L 93.451 209.616 L 93.468 204.086 L 93.468 198.544 L 93.71 192.7 L 94.085 186.974 L 94.57 181.74 L 95.175 176.506 L 96.029 170.537 L 96.889 165.546 L 97.867 160.556 L 98.964 155.565 L 100.395 149.839 L 101.754 144.966 L 103.442 139.477 L 105.058 134.735 L 107.33 128.648 L 109.385 123.651 L 111.269 119.389 L 113.699 114.273 L 116.51 108.915 L 117.673 106.846 L 118.834 104.775 L 121.626 100.145 L 125.565 94.176 L 128.448 90.157 L 131.521 86.165 L 134.772 82.238 L 138.325 78.219 L 145.161 71.383 L 148.325 68.572 L 152.344 65.223 L 157.46 61.382 L 161.603 58.591 L 165.498 56.194 L 167.444 55.104 L 169.392 54.017 L 173.739 51.837 L 177.239 50.268 L 181.494 48.566 L 186.563 46.847 L 189.853 45.894 L 194.358 44.778 L 198.765 43.944 L 203 43.34 L 206.651 42.972 L 212.01 42.689 L 219.075 42.834 L 223.337 43.221 L 227.113 43.7 L 231.375 44.443 L 235.755 45.434 L 240.502 46.735 L 243.205 47.651 L 245.907 48.57 L 247.466 49.191 L 249.026 49.815 L 252.191 51.161 L 256.88 53.433 L 260.59 55.435 L 265.095 58.128 L 269.968 61.391 L 275.083 65.233 L 279.102 68.582 L 282.254 71.406 L 287.231 76.278 L 291.165 80.541 L 294.087 83.948 L 297.016 87.599 L 298.98 90.16 L 302.02 94.422 L 304.936 98.809 L 307.503 102.953 L 309.755 106.847 L 311.962 110.866 L 315.422 117.807 L 317.622 122.679 L 319.802 127.913 L 321.418 132.122 L 323.368 137.611 L 325.088 143.016 L 326.875 149.228 L 328.228 154.586 L 328.793 157.082 L 329.354 159.577 L 330.168 163.596 L 331.16 169.073 L 331.994 174.674 L 332.152 175.83 L 332.565 175.83 L 337.195 175.351 L 341.338 175.351 L 344.017 175.594 L 347.793 176.218 L 350.959 177.032 L 354.216 178.168 L 357.046 179.376 L 360.697 181.274 L 364.716 183.703 L 368.977 186.461 L 374.336 190.126 L 377.383 192.312 L 380.791 194.873 L 384.199 197.56 L 387.364 200.206 L 390.693 203.351 L 392.893 205.847 L 394.161 206.3 L 395.408 207.554 L 396.669 210.633 L 398.147 214.981 L 399.454 219.367 L 400.57 223.446 L 401.647 228.009 L 402.507 232.028 L 403.243 235.804 L 403.853 239.212 L 404.457 243.106 L 405.074 247.854 L 405.436 251.262 L 405.81 255.524 L 406.164 261.126 L 406.447 269.406 L 406.296 279.637 L 406.047 284.385 L 405.554 290.715 L 405.068 295.462 L 404.228 302.312 L 403.367 308.005 L 402.501 312.878 L 401.958 315.524 L 401.417 318.167 L 400.196 323.105 L 398.974 327.367 L 397.378 332.115 L 395.585 336.83 L 393.859 340.881 L 391.837 345.143 L 389.971 348.676 L 387.417 352.938 L 385.204 356.103 L 382.446 359.636 L 379.734 362.801 L 375.918 366.912 L 371.414 371.298 L 367.52 374.772 L 364.216 377.543 L 359.85 380.971 L 355.587 384.129 L 351.694 386.828 L 345.85 390.591 L 340.373 393.875 L 336.098 396.219 L 329.413 399.502 L 324.298 401.676 L 319.911 403.317 L 315.524 404.776 L 310.79 406.095 L 305.904 407.185 L 300.914 408.033 L 296.527 408.525 L 292.337 408.774 L 286.06 408.741 L 284.355 408.646 L 284.348 408.656 Z M 296.464 401.181 L 298.352 400.993 L 301.76 400.494 L 305.05 399.897 L 308.944 399.023 L 313.574 397.729 L 317.35 396.463 L 321.244 395.011 L 325.388 393.284 L 330.68 390.795 L 335.251 388.359 L 338.54 386.474 L 343.899 383.185 L 348.89 379.901 L 352.18 377.576 L 356.566 374.293 L 360.67 371.009 L 363.383 368.679 L 366.673 365.75 L 372.648 359.781 L 376.253 355.657 L 378.578 352.754 L 381.08 349.254 L 382.407 347.114 L 383.818 344.677 L 386.084 340.291 L 387.942 336.147 L 389.288 332.877 L 390.819 328.72 L 392.296 324.216 L 393.182 321.05 L 394.483 315.692 L 395.487 310.701 L 396.433 305.099 L 397.161 299.984 L 397.779 294.993 L 398.384 288.781 L 398.751 283.791 L 399.04 278.675 L 399.04 265.036 L 398.737 259.559 L 398.37 254.443 L 397.871 249.21 L 397.7 248.507 L 397.123 251.16 L 395.835 255.79 L 394.824 258.711 L 393.478 262.12 L 391.797 265.758 L 389.571 269.908 L 386.904 274.38 L 383.7 279.161 L 381.153 282.654 L 377.521 287.323 L 374.1 291.466 L 369.857 296.425 L 365.865 300.897 L 365.865 301.468 L 362.766 304.37 L 353.625 313.387 L 349.75 316.873 L 345.587 320.334 L 342.297 322.909 L 339.026 325.299 L 334.995 328.011 L 331.101 330.342 L 328.421 331.807 L 324.034 334 L 319.648 336.003 L 313.679 338.57 L 309.049 340.396 L 303.632 342.201 L 298.458 343.502 L 294.925 344.139 L 291.148 344.611 L 287.13 344.9 L 281.042 344.756 L 271.908 343.902 L 267.003 343.64 L 262.958 343.896 L 260.134 344.263 L 257.533 344.756 L 254.244 345.616 L 244.138 348.985 L 240.848 349.845 L 237.197 350.574 L 234.15 350.941 L 231.228 351.205 L 219.296 351.408 L 216.742 351.795 L 212.723 352.636 L 207.121 353.851 L 202.86 354.468 L 201.627 354.476 L 194.12 364.077 L 184.867 354.343 L 184.795 354.415 L 188.236 358.185 L 194.342 364.272 L 198.605 368.153 L 201.769 370.866 L 204.816 373.308 L 208.1 375.705 L 212.612 378.667 L 216.63 381.057 L 220.406 383.099 L 225.521 385.62 L 230.801 387.952 L 236.606 390.25 L 242.083 392.194 L 248.419 394.269 L 254.382 396.022 L 262.419 398.051 L 267.738 399.167 L 272.414 399.995 L 277.642 400.731 L 281.417 401.105 L 285.069 401.355 L 286.533 401.446 L 294.57 401.355 L 296.458 401.167 L 296.464 401.181 Z M 283.311 392.584 L 281.059 392.489 L 277.651 392.22 L 273.146 391.727 L 269.003 391.11 L 265.713 390.512 L 259.698 389.173 L 251.587 387.131 L 244.889 385.299 L 238.802 383.473 L 233.444 381.726 L 227.599 379.585 L 224.92 378.548 L 224.145 377.779 L 223.975 376.873 L 224.388 375.789 L 225.11 375.278 L 226.01 375.159 L 230.87 377.024 L 236.241 378.929 L 241.718 380.649 L 246.222 381.988 L 252.921 383.821 L 261.202 385.883 L 266.192 386.992 L 270.21 387.722 L 274.473 388.325 L 279.345 388.812 L 284.205 389.1 L 291.527 388.962 L 295.059 388.588 L 297.699 388.201 L 301.389 387.491 L 302.072 387.491 L 302.762 387.846 L 303.399 388.602 L 303.399 389.863 L 302.945 390.545 L 302.42 390.913 L 299.314 391.517 L 295.663 392.108 L 291.887 392.489 L 286.772 392.726 L 285.557 392.693 L 283.304 392.597 L 283.311 392.584 Z M 348.978 365.358 L 348.585 365.164 L 348.053 364.311 L 348.053 363.273 L 348.519 362.551 L 350.062 361.277 L 353.727 357.79 L 358.021 353.325 L 361.56 349.431 L 364.115 346.508 L 367.411 342.614 L 370.222 339.081 L 372.165 336.403 L 374.353 333.113 L 375.955 330.433 L 377.826 326.9 L 379.238 323.853 L 379.973 322.146 L 381.234 318.981 L 382.561 315.087 L 383.152 313.015 L 383.74 310.943 L 384.501 307.463 L 385.716 298.887 L 385.979 297.764 L 386.806 296.963 L 388.094 296.858 L 388.947 297.436 L 389.387 298.282 L 389.269 299.255 L 388.277 306.353 L 387.778 309.236 L 386.714 313.622 L 385.5 317.642 L 383.884 322.022 L 382.275 325.804 L 380.627 329.271 L 378.991 332.259 L 377.041 335.516 L 374.769 338.885 L 372.734 341.636 L 369.313 345.891 L 364.814 351.126 L 361.183 355.137 L 356.396 360.155 L 352.535 363.832 L 350.735 365.329 L 350.144 365.553 L 349.369 365.546 L 348.975 365.352 L 348.978 365.358 Z M 204.33 357.757 L 204.116 357.521 L 204.701 357.541 L 205.148 357.718 L 204.537 357.994 L 204.324 357.757 L 204.33 357.757 Z M 173.289 348.28 L 172.364 347.745 L 169.321 347.109 L 169.514 340.856 L 169.726 336.849 L 169.168 334.15 L 169.024 334.15 L 170.004 336.584 L 171.435 340.559 L 170.551 346.805 L 170.819 346.973 L 169.194 345.57 L 171.217 346.739 L 173.653 348.026 L 173.712 348.032 L 173.295 347.271 L 173.289 348.28 Z M 159.895 339.611 L 163.012 342.208 L 169.149 345.794 L 166.696 345.011 L 170.603 346.082 L 170.399 338.637 L 170.616 338.174 L 169.191 334.239 L 164.866 314.563 L 165.041 308.176 L 165.902 298.647 L 158.241 289.234 L 157.532 286.338 L 156.271 282.444 L 153.599 275.017 L 152.273 270.998 L 151.57 268.562 L 150.716 265.153 L 150.085 261.989 L 149.488 257.845 L 149.107 253.826 L 148.956 248.225 L 149.245 244.081 L 149.705 240.791 L 150.23 238.256 L 150.946 235.702 L 151.813 233.364 L 153.375 230.305 L 155.188 227.881 L 157.565 225.471 L 159.922 223.705 L 162.556 222.115 L 171.808 217.48 L 174.244 215.943 L 175.781 214.892 L 177.896 213.112 L 181.547 209.369 L 184.594 205.719 L 191.403 196.952 L 193.847 194.029 L 196.401 191.383 L 198.232 189.906 L 200.551 188.382 L 203.348 186.918 L 206.967 185.414 L 213.822 183.023 L 217.841 181.566 L 221.039 180.331 L 223.929 179.077 L 228.072 177.008 L 232.274 174.716 L 235.131 173.416 L 237.502 172.53 L 240.404 171.821 L 242.801 171.505 L 247.674 171.525 L 251.081 171.807 L 255.587 172.195 L 261.312 172.215 L 262.715 172.008 L 264.117 171.798 L 268.989 170.688 L 273.619 169.749 L 276.298 169.375 L 278.734 169.072 L 285.19 169.066 L 288.723 169.381 L 293.108 169.992 L 297.252 170.839 L 301.147 171.778 L 303.892 172.665 L 306.236 173.643 L 308.205 174.635 L 311.982 176.769 L 314.293 177.629 L 316.486 178.042 L 321.359 178.069 L 323.67 177.642 L 324.951 177.367 L 324.951 177.202 L 324.577 174.542 L 323.972 170.524 L 323.106 165.651 L 322.048 160.418 L 321.162 156.524 L 319.809 151.165 L 318.023 144.953 L 316.822 141.177 L 315.239 136.547 L 313.603 132.161 L 312.192 128.635 L 310.313 124.248 L 307.891 119.015 L 304.995 113.36 L 302.519 108.908 L 299.459 103.792 L 295.059 97.219 L 292.8 94.119 L 289.727 90.16 L 286.785 86.64 L 283.758 83.219 L 277.047 76.514 L 273.271 73.224 L 271.078 71.406 L 267.912 68.963 L 264.865 66.769 L 261.55 64.55 L 257.321 62.008 L 253.912 60.144 L 249.932 58.193 L 246.117 56.538 L 241.974 54.949 L 237.804 53.596 L 234.304 52.638 L 230.528 51.765 L 227.238 51.16 L 223.83 50.668 L 222.005 50.484 L 220.179 50.297 L 215.917 50.047 L 211.655 50.047 L 207.268 50.297 L 203.618 50.671 L 200.209 51.164 L 196.92 51.768 L 193.144 52.641 L 189.677 53.594 L 185.835 54.834 L 182.598 56.036 L 178.855 57.592 L 174.678 59.55 L 170.002 62.077 L 166.837 63.968 L 161.965 67.193 L 158.556 69.695 L 154.538 72.913 L 150.401 76.544 L 145.673 81.173 L 142.258 84.825 L 138.659 89.007 L 135.895 92.501 L 133.997 95.016 L 131.199 98.95 L 128.462 103.1 L 125.769 107.487 L 123.464 111.505 L 121.087 115.951 L 118.211 121.855 L 115.886 127.108 L 113.818 132.21 L 112.675 135.257 L 110.79 140.616 L 109.175 145.731 L 107.612 151.207 L 106.141 157.052 L 104.801 163.14 L 103.816 168.373 L 102.969 173.607 L 102.352 178.111 L 101.748 183.47 L 101.255 189.196 L 100.874 195.408 L 100.737 207.95 L 101.019 215.135 L 101.38 220.611 L 101.866 225.845 L 102.483 231.079 L 103.088 235.34 L 104.059 241.185 L 105.169 246.787 L 106.377 252.145 L 107.73 257.378 L 109.516 263.591 L 111.395 269.317 L 113.417 274.918 L 115.61 280.395 L 117.909 285.629 L 120.286 290.619 L 121.559 293.055 L 123.221 296.221 L 126.006 301.086 L 128.33 304.869 L 131.652 309.866 L 134.174 313.393 L 136.978 317.044 L 139.553 320.209 L 142.895 324.031 L 147.492 328.857 L 151.727 332.791 L 154.059 334.827 L 157.204 337.414 L 161.591 340.723 L 161.755 340.736 L 161.171 340.485 L 159.895 339.611 Z M 148.539 317.842 L 147.833 317.251 L 145.758 315.084 L 143.223 312.037 L 140.314 308.143 L 136.361 302.174 L 133.085 296.697 L 129.552 290.367 L 127.339 286.223 L 124.022 279.769 L 121.33 274.292 L 119.196 269.662 L 117.495 265.401 L 116.123 261.211 L 115.269 258.092 L 114.567 255.045 L 114.068 252.365 L 113.575 248.59 L 113.325 245.451 L 113.325 242.305 L 113.68 241.616 L 114.435 240.979 L 115.656 240.979 L 116.3 241.366 L 116.786 242.017 L 116.944 246.528 L 117.22 249.325 L 117.712 252.734 L 118.434 256.141 L 119.419 259.918 L 120.962 264.547 L 122.289 267.836 L 123.956 271.613 L 129.735 283.184 L 133.755 290.676 L 136.348 295.24 L 139.041 299.745 L 141.463 303.521 L 143.539 306.542 L 146.014 309.858 L 148.536 312.904 L 151.425 315.755 L 151.668 316.392 L 151.668 317.121 L 151.314 317.81 L 150.559 318.447 L 149.252 318.447 L 148.539 317.842 Z M 188.773 334.633 L 189.161 334.397 L 189.541 333.813 L 189.896 331.791 L 190.874 328.533 L 192.431 324.567 L 194.191 320.686 L 196.102 316.91 L 198.571 312.536 L 200.889 308.998 L 203.641 305.346 L 206.524 302.076 L 210.181 298.438 L 213.181 295.851 L 216.912 293.047 L 219.749 291.346 L 220.221 290.578 L 220.221 289.507 L 219.775 288.66 L 218.705 288.115 L 218.087 288.115 L 216.623 288.811 L 212.971 291.261 L 209.518 294.032 L 206.635 296.626 L 203.47 299.869 L 200.79 302.943 L 198.532 305.839 L 195.524 310.343 L 193.232 314.362 L 191.255 318.139 L 189.515 321.914 L 188.097 325.323 L 186.954 328.487 L 186.153 331.417 L 185.851 333.281 L 186.383 334.378 L 187.158 334.877 L 188.373 334.877 L 188.764 334.641 L 188.773 334.633 Z M 171.322 327.927 L 172.413 325.027 L 173.234 322.833 L 174.102 321.739 L 174.677 319.552 L 174.649 320.436 L 173.729 317.757 L 171.004 311.302 L 169.723 308.012 L 167.95 302.896 L 166.932 300.585 L 165.856 298.759 L 165.678 300.224 L 165.055 307.65 L 164.785 314.224 L 168.922 334.319 L 169.87 335.248 L 170.022 331.807 L 170.895 328.884 L 171.322 327.927 Z M 179.071 308.202 L 179.839 306.925 L 183.175 302.781 L 185.841 299.727 L 190.228 295.104 L 194.47 291.171 L 196.782 289.188 L 199.658 286.949 L 202.501 284.952 L 206.152 282.759 L 209.567 280.98 L 213.054 279.325 L 216.869 277.729 L 220.763 276.264 L 224.907 274.82 L 231.119 272.902 L 235.624 271.668 L 239.761 270.67 L 243.175 269.941 L 248.777 268.989 L 253.282 268.378 L 256.69 268.004 L 260.952 267.649 L 266.31 267.34 L 278.367 267.347 L 283.483 267.649 L 288.473 268.01 L 294.442 268.627 L 299.801 269.343 L 303.819 269.96 L 308.81 270.821 L 314.411 271.924 L 319.159 273.007 L 324.387 274.361 L 329.535 275.916 L 334.263 277.604 L 337.31 278.826 L 340.232 280.093 L 344.98 282.484 L 348.387 284.48 L 352.164 286.975 L 355.086 289.148 L 358.034 291.604 L 361.462 294.796 L 364.352 291.565 L 367.274 288.157 L 370.446 284.382 L 373.374 280.73 L 376.414 276.712 L 378.503 273.789 L 381.058 269.895 L 383.014 266.605 L 384.406 264.051 L 386.081 260.702 L 387.512 257.352 L 388.733 253.944 L 389.844 250.051 L 390.69 246.274 L 391.189 243.595 L 391.669 240.305 L 392.161 235.557 L 392.438 229.831 L 392.273 226.18 L 391.925 222.647 L 391.413 219.6 L 390.572 216.31 L 389.397 213.598 L 387.992 211.438 L 387 210.223 L 384.695 207.702 L 381.635 204.937 L 378.47 202.35 L 373.965 198.889 L 370.918 196.676 L 366.531 193.642 L 362.88 191.206 L 358.376 188.402 L 354.843 186.425 L 351.461 184.941 L 347.876 183.746 L 344.25 183.023 L 342.057 182.708 L 336.58 182.715 L 333.054 183.149 L 330.979 183.509 L 325.621 184.737 L 322.088 185.374 L 316.119 185.368 L 314.051 185.073 L 311.857 184.567 L 309.164 183.529 L 307.595 182.741 L 305.402 181.454 L 302.48 179.997 L 300.135 179.123 L 296.878 178.269 L 293.345 177.52 L 290.791 177.048 L 288.88 176.812 L 286.966 176.575 L 281.955 176.286 L 277.74 176.569 L 274.594 177.041 L 271.915 177.56 L 266.188 178.874 L 263.142 179.379 L 258.893 179.661 L 253.279 179.373 L 249.26 179.018 L 244.84 178.755 L 241.951 179.005 L 239.436 179.628 L 236.835 180.672 L 235.253 181.468 L 229.559 184.527 L 225.029 186.642 L 221.496 188.047 L 218.205 189.262 L 209.681 192.25 L 206.97 193.359 L 204.31 194.693 L 202.078 196.183 L 200.082 198.061 L 197.665 200.866 L 190.271 210.361 L 187.04 214.255 L 182.029 219.265 L 179.961 220.907 L 177.426 222.634 L 174.602 224.315 L 165.593 228.787 L 162.92 230.553 L 160.773 232.622 L 159.597 234.224 L 158.849 235.564 L 157.876 238.027 L 157.141 240.804 L 156.662 243.608 L 156.347 246.412 L 156.367 253.229 L 156.905 258.344 L 157.64 262.73 L 158.856 267.603 L 160.996 274.058 L 163.675 281.499 L 164.66 284.775 L 165.081 286.482 L 167.819 289.286 L 169.08 290.75 L 171.109 293.443 L 172.718 295.984 L 174.254 299.031 L 175.128 301.343 L 176.874 306.333 L 177.801 308.645 L 178.201 309.583 L 178.273 309.492 L 179.041 308.215 L 179.071 308.202 Z M 239.964 286.702 L 240.867 286.394 L 243.67 285.685 L 247.204 284.956 L 252.68 283.984 L 258.282 283.117 L 264.737 282.27 L 272.164 281.41 L 276.544 281.03 L 283.025 280.806 L 290.425 281.03 L 293.834 281.292 L 296.756 281.653 L 300.479 282.277 L 301.629 281.705 L 302.2 280.556 L 302.036 279.564 L 301.399 278.81 L 300.65 278.494 L 296.881 277.871 L 293.715 277.516 L 289.697 277.201 L 277.273 277.194 L 273.497 277.516 L 267.849 278.114 L 259.983 279.092 L 254.867 279.828 L 248.294 280.937 L 242.817 282.027 L 240.381 282.632 L 237.722 283.505 L 236.861 284.292 L 236.763 285.868 L 237.564 286.781 L 238.063 286.986 L 239.055 286.998 L 239.958 286.69 L 239.964 286.702 Z" style=""/>
  <path d="M 250.953 272.928 C 256.416 272.525 267.944 271.41 273.631 271.744 C 280.03 272.123 287.589 272.488 295.477 272.63 C 305.492 272.811 310.397 276.233 316.735 276.227 C 320.872 276.223 331.414 281.34 334.015 281.606 C 337.386 281.951 340.736 285.79 343.88 286.929 C 346.649 287.931 348.935 290.139 350.528 291.847 C 351.932 293.354 354.132 295.315 355.623 296.254 C 358.893 298.316 350.171 304.898 349.929 306.306 C 349.656 307.889 347.343 308.658 346.362 310.24 C 345.314 311.926 341.515 313.969 339.283 315.595 C 336.159 317.871 333.27 319.637 329.849 321.968 C 328.072 323.176 323.41 325.575 319.98 326.81 C 314.723 328.703 314.934 330.01 306.004 332.28 C 294.749 335.143 287.65 336.853 273.4 334.904 C 262.874 333.464 255.123 336.303 251.257 337.889 C 245.583 340.217 238.87 340.85 233.335 341.591 C 227.301 342.399 221.877 342.03 215.622 342.701 C 211.081 343.189 196.071 348.145 203.025 346.016 C 204.632 345.525 196.352 347.244 193.526 352.508 C 183.378 371.416 175.933 349.983 175.481 347.691 C 175.168 346.105 176.462 333.805 176.648 332.004 C 176.855 329.999 181.606 320.158 182.009 317.515 C 182.703 312.979 185.592 309.866 188.798 305.528 C 193.158 299.633 192.302 299.753 198.051 294.854 C 202.358 291.182 204.921 288.83 208.866 286.692 C 212.571 284.683 215.94 282.87 219.725 281.443 C 223.498 280.022 228.907 277.589 233.374 276.615 C 238.653 275.465 245.112 273.358 250.953 272.928 Z" style="fill-rule: nonzero; paint-order: markers stroke; fill: rgb(255, 136, 0); stroke-width: 5px; stroke: rgb(248, 183, 17);"/>
  <path style="stroke: rgb(0, 0, 0); fill: rgb(255, 255, 255);" d="M 186.225 332.916 C 186.225 332.916 192.924 300.453 217.915 288.086 C 217.915 288.086 221.78 287.056 219.719 291.436 C 219.719 291.436 201.169 298.907 189.06 334.719 C 189.06 334.719 185.453 337.553 186.225 332.916 Z"/>
  <path style="stroke: rgb(0, 0, 0); fill: rgb(255, 255, 255);" d="M 236.308 283.126 C 236.308 283.126 276.242 271.532 300.461 278.488 C 300.461 278.488 303.399 279.105 300.308 281.423 C 297.217 283.741 270.059 277.2 237.081 286.475 C 235.662 287.387 233.921 284.66 236.308 283.126 Z"/>
</svg>