<?xml version="1.0" encoding="utf-8"?>
<svg viewBox="0 0 500 500" width="500" height="500" xmlns="http://www.w3.org/2000/svg">
  <path style="fill: rgba(255, 102, 71, 0); stroke: rgb(0, 0, 0); stroke-width: 11px;" d="M 458.497 85.982 C 434.158 58.496 400.519 43.359 363.777 43.359 C 334.914 43.359 307.912 55.105 285.694 77.323 C 270.871 92.148 258.64 110.995 249.693 132.643 C 240.744 110.995 228.514 92.148 213.693 77.323 C 191.475 55.105 164.473 43.359 135.609 43.359 C 98.864 43.359 65.228 58.497 40.891 85.983 C 18.224 111.576 5.225 146.533 5.225 181.891 C 5.225 224.345 18.07 266.244 43.405 306.433 C 63.469 338.255 91.369 369.063 126.338 398.001 C 185.589 447.036 243.906 473.438 246.359 474.538 C 248.463 475.48 250.921 475.48 253.026 474.538 C 255.478 473.438 313.794 447.036 373.045 398.001 C 408.015 369.063 435.916 338.255 455.978 306.433 C 481.313 266.244 494.159 224.345 494.159 181.891 C 494.159 146.533 481.16 111.576 458.497 85.982 Z"/>
  <path style="fill: rgba(227, 83, 54, 0);" d="M 157.876 404.227 C 122.293 374.78 93.903 343.432 73.488 311.051 C 47.71 270.157 34.639 227.521 34.639 184.323 C 34.639 148.344 47.866 112.774 70.927 86.73 C 91.759 63.201 119.294 48.57 149.769 44.516 C 144.633 43.752 139.417 43.36 134.142 43.36 C 96.753 43.36 62.524 58.764 37.759 86.733 C 14.697 112.774 1.47 148.344 1.47 184.323 C 1.47 227.522 14.541 270.157 40.32 311.051 C 60.736 343.432 89.127 374.78 124.709 404.227 C 185 454.122 244.341 480.988 246.837 482.106 C 248.978 483.066 251.479 483.066 253.621 482.106 C 254.289 481.807 259.048 479.654 266.812 475.704 C 245.617 464.926 202.004 440.746 157.876 404.227 Z"/>
</svg>