<?xml version="1.0" encoding="utf-8"?>
<svg viewBox="0 0 500 500" width="500" height="500" xmlns="http://www.w3.org/2000/svg">
  <path style="fill: rgb(255, 102, 71);" d="M 462.699 86.73 C 437.932 58.761 403.703 43.359 366.316 43.359 C 336.946 43.359 309.471 55.311 286.862 77.919 C 271.779 93.005 259.333 112.182 250.23 134.211 C 241.124 112.182 228.679 93.005 213.597 77.919 C 190.989 55.311 163.513 43.359 134.142 43.359 C 96.753 43.359 62.526 58.762 37.762 86.731 C 14.697 112.774 1.47 148.344 1.47 184.323 C 1.47 227.522 14.541 270.157 40.32 311.051 C 60.736 343.432 89.127 374.78 124.709 404.227 C 185 454.122 244.341 480.988 246.837 482.106 C 248.978 483.066 251.479 483.066 253.621 482.106 C 256.116 480.988 315.456 454.122 375.747 404.227 C 411.33 374.78 439.722 343.432 460.136 311.051 C 485.915 270.157 498.987 227.522 498.987 184.323 C 498.987 148.344 485.759 112.774 462.699 86.73 Z"/>
  <path style="fill: rgb(227, 83, 54);" d="M 157.876 404.227 C 122.293 374.78 93.903 343.432 73.488 311.051 C 47.71 270.157 34.639 227.521 34.639 184.323 C 34.639 148.344 47.866 112.774 70.927 86.73 C 91.759 63.201 119.294 48.57 149.769 44.516 C 144.633 43.752 139.417 43.36 134.142 43.36 C 96.753 43.36 62.524 58.764 37.759 86.733 C 14.697 112.774 1.47 148.344 1.47 184.323 C 1.47 227.522 14.541 270.157 40.32 311.051 C 60.736 343.432 89.127 374.78 124.709 404.227 C 185 454.122 244.341 480.988 246.837 482.106 C 248.978 483.066 251.479 483.066 253.621 482.106 C 254.289 481.807 259.048 479.654 266.812 475.704 C 245.617 464.926 202.004 440.746 157.876 404.227 Z"/>
</svg>